<svg width="174" height="53" viewBox="0 0 174 53" fill="none" xmlns="http://www.w3.org/2000/svg">
<g clip-path="url(#clip0_3_99502)">
<path fill-rule="evenodd" clip-rule="evenodd" d="M41.5695 11.3267C41.3674 11.1251 41.2461 10.9234 41.2461 10.6411C41.2461 10.3587 41.3674 10.157 41.5695 9.95536C41.9738 9.59235 42.6207 9.59235 43.0654 9.95536C43.2676 10.157 43.3888 10.3587 43.3888 10.6411C43.3888 10.9234 43.2676 11.1251 43.0654 11.3267C42.8633 11.4881 42.5803 11.6091 42.3377 11.6091C42.0547 11.6494 41.7717 11.5687 41.5695 11.3267Z" fill="white"/>
<path fill-rule="evenodd" clip-rule="evenodd" d="M38.9822 14.1099C38.8205 13.9083 38.6992 13.7066 38.6992 13.4243C38.6992 13.1419 38.8205 12.9402 38.9822 12.7386C39.3461 12.3756 39.993 12.3756 40.3568 12.7386C40.5185 12.9402 40.6398 13.1419 40.6398 13.4243C40.6398 13.7066 40.5185 13.9083 40.3568 14.1099C40.1547 14.2713 39.9525 14.3923 39.6695 14.3923C39.3865 14.3923 39.1844 14.2713 38.9822 14.1099Z" fill="white"/>
<path fill-rule="evenodd" clip-rule="evenodd" d="M36.1531 16.7721C35.9914 16.6107 35.8701 16.3687 35.8701 16.0864C35.8701 15.804 35.9914 15.6023 36.1531 15.4007C36.517 15.0377 37.1639 15.0377 37.5277 15.4007C37.6894 15.562 37.8107 15.804 37.8107 16.0864C37.8107 16.3687 37.6894 16.5704 37.5277 16.7721C37.3256 16.9737 37.1234 17.0544 36.8404 17.0544C36.5574 17.0544 36.3148 16.9334 36.1531 16.7721Z" fill="white"/>
<path fill-rule="evenodd" clip-rule="evenodd" d="M33.4436 19.4752C33.2414 19.3138 33.1201 19.0718 33.1201 18.7895C33.1201 18.5071 33.2414 18.3055 33.4436 18.1038C33.8478 17.7408 34.4947 17.7408 34.9394 18.1038C35.1416 18.2651 35.2629 18.5071 35.2629 18.7895C35.2629 19.0718 35.1416 19.3138 34.9394 19.4752C34.7373 19.6769 34.4543 19.7575 34.2117 19.7575C33.9287 19.7575 33.6861 19.7172 33.4436 19.4752Z" fill="white"/>
<path fill-rule="evenodd" clip-rule="evenodd" d="M30.8553 22.1768C30.6531 22.0155 30.5723 21.7735 30.5723 21.4911C30.5723 21.2088 30.6936 21.0071 30.8553 20.8055C31.2191 20.4425 31.866 20.4425 32.2299 20.8055C32.432 20.9668 32.5129 21.2088 32.5129 21.4911C32.5129 21.7735 32.3916 22.0155 32.2299 22.1768C32.0682 22.3785 31.8256 22.4592 31.5426 22.4592C31.3 22.4995 31.017 22.4188 30.8553 22.1768Z" fill="white"/>
<path fill-rule="evenodd" clip-rule="evenodd" d="M27.7441 24.1943C27.7441 23.9119 27.8654 23.7103 28.0271 23.5086C28.391 23.1456 29.0379 23.1456 29.4017 23.5086C29.6039 23.7103 29.6848 23.9119 29.6848 24.1943C29.6848 24.4766 29.5635 24.6783 29.4017 24.88C29.24 25.0413 28.9975 25.1623 28.7144 25.1623C28.4314 25.1623 28.2293 25.0413 28.0271 24.88C27.825 24.7186 27.7441 24.4766 27.7441 24.1943Z" fill="white"/>
<path fill-rule="evenodd" clip-rule="evenodd" d="M22.6883 30.1641C22.5266 30.0028 22.4053 29.7608 22.4053 29.4785C22.4053 29.1961 22.5266 28.9944 22.6883 28.7928C23.0521 28.4298 23.699 28.4298 24.0629 28.7928C24.265 28.9944 24.3459 29.1961 24.3459 29.4785C24.3459 29.7608 24.2246 29.9625 24.0629 30.1641C23.9012 30.3658 23.6586 30.4465 23.3756 30.4465C23.133 30.4868 22.8904 30.4062 22.6883 30.1641Z" fill="white"/>
<path fill-rule="evenodd" clip-rule="evenodd" d="M19.8996 32.8656C19.6975 32.7042 19.5762 32.4622 19.5762 32.1799C19.5762 31.8975 19.6975 31.6959 19.8996 31.4942C20.3039 31.1312 20.9508 31.1312 21.3955 31.4942C21.5976 31.6959 21.7189 31.8975 21.7189 32.1799C21.7189 32.4622 21.5976 32.6639 21.3955 32.8656C21.1933 33.0672 20.9103 33.1479 20.6678 33.1479C20.3443 33.1882 20.1018 33.0672 19.8996 32.8656Z" fill="white"/>
<path fill-rule="evenodd" clip-rule="evenodd" d="M17.2742 35.6092C17.1125 35.4479 16.9912 35.2059 16.9912 34.9235C16.9912 34.6412 17.1125 34.3992 17.2742 34.2378C17.6381 33.8748 18.2849 33.8748 18.6488 34.2378C18.8105 34.3992 18.9318 34.6412 18.9318 34.9235C18.9318 35.2059 18.8105 35.4075 18.6488 35.6092C18.4467 35.8109 18.2445 35.8916 17.9615 35.8916C17.6785 35.8916 17.5168 35.7705 17.2742 35.6092Z" fill="white"/>
<path fill-rule="evenodd" clip-rule="evenodd" d="M14.5623 38.3106C14.3602 38.1493 14.2793 37.9073 14.2793 37.6249C14.2793 37.3426 14.4006 37.1409 14.5623 36.9393C14.9262 36.5762 15.573 36.5762 15.9369 36.9393C16.0986 37.1409 16.2199 37.3426 16.2199 37.6249C16.2199 37.9073 16.0986 38.1493 15.9369 38.3106C15.7348 38.5123 15.5326 38.593 15.2496 38.593C15.007 38.593 14.724 38.5123 14.5623 38.3106Z" fill="white"/>
<path fill-rule="evenodd" clip-rule="evenodd" d="M11.7756 41.0138C11.5734 40.8524 11.4521 40.6104 11.4521 40.3281C11.4521 40.0457 11.5734 39.844 11.7756 39.6424C12.1799 39.2794 12.8267 39.2794 13.1906 39.6424C13.3928 39.844 13.514 40.0457 13.514 40.3281C13.514 40.6104 13.3928 40.8524 13.1906 41.0138C12.9885 41.1751 12.7055 41.2961 12.4629 41.2961C12.1799 41.2961 11.9373 41.2154 11.7756 41.0138Z" fill="white"/>
<path fill-rule="evenodd" clip-rule="evenodd" d="M9.10527 43.7159C8.90312 43.5142 8.82227 43.3126 8.82227 43.0302C8.82227 42.7479 8.94355 42.5462 9.10527 42.3445C9.46914 41.9815 10.116 41.9815 10.4799 42.3445C10.682 42.5462 10.7629 42.7479 10.7629 43.0302C10.7629 43.3126 10.6416 43.5142 10.4799 43.7159C10.3182 43.8772 10.0756 43.9982 9.79257 43.9982C9.59042 44.0386 9.34785 43.9176 9.10527 43.7159Z" fill="white"/>
<path fill-rule="evenodd" clip-rule="evenodd" d="M10.4799 11.3267C10.6416 11.1251 10.7629 10.9234 10.7629 10.6411C10.7629 10.3587 10.6416 10.157 10.4799 9.95536C10.116 9.59235 9.46914 9.59235 9.10527 9.95536C8.90312 10.157 8.82227 10.3587 8.82227 10.6411C8.82227 10.9234 8.94355 11.1251 9.10527 11.3267C9.26699 11.4881 9.50957 11.6091 9.79257 11.6091C10.0756 11.6494 10.3182 11.5687 10.4799 11.3267Z" fill="white"/>
<path fill-rule="evenodd" clip-rule="evenodd" d="M13.1904 14.1099C13.3926 13.9083 13.5138 13.7066 13.5138 13.4243C13.5138 13.1419 13.3926 12.9402 13.1904 12.7386C12.7861 12.3756 12.1393 12.3756 11.6945 12.7386C11.4924 12.9402 11.3711 13.1419 11.3711 13.4243C11.3711 13.7066 11.4924 13.9083 11.6945 14.1099C11.8967 14.2713 12.1797 14.3923 12.4223 14.3923C12.7053 14.352 12.9883 14.2713 13.1904 14.1099Z" fill="white"/>
<path fill-rule="evenodd" clip-rule="evenodd" d="M15.9369 16.7721C16.0986 16.6107 16.2199 16.3687 16.2199 16.0864C16.2199 15.804 16.0986 15.6023 15.9369 15.4007C15.573 15.0377 14.9262 15.0377 14.5623 15.4007C14.4006 15.562 14.2793 15.804 14.2793 16.0864C14.2793 16.3687 14.4006 16.5704 14.5623 16.7721C14.7644 16.9737 14.9666 17.0544 15.2496 17.0544C15.4922 17.0544 15.7348 16.9334 15.9369 16.7721Z" fill="white"/>
<path fill-rule="evenodd" clip-rule="evenodd" d="M18.6488 19.4752C18.8105 19.3138 18.9318 19.0718 18.9318 18.7895C18.9318 18.5071 18.8105 18.3055 18.6488 18.1038C18.2849 17.7408 17.6381 17.7408 17.2742 18.1038C17.1125 18.2651 16.9912 18.5071 16.9912 18.7895C16.9912 19.0718 17.1125 19.3138 17.2742 19.4752C17.4764 19.6769 17.6785 19.7575 17.9615 19.7575C18.2041 19.7575 18.4467 19.7172 18.6488 19.4752Z" fill="white"/>
<path fill-rule="evenodd" clip-rule="evenodd" d="M21.3146 22.1768C21.5168 22.0155 21.6381 21.7735 21.6381 21.4911C21.6381 21.2088 21.5168 21.0071 21.3146 20.8055C20.9508 20.4425 20.2635 20.4425 19.8996 20.8055C19.6975 20.9668 19.5762 21.2088 19.5762 21.4911C19.5762 21.7735 19.6975 22.0155 19.8996 22.1768C20.1018 22.3785 20.3848 22.4592 20.6273 22.4592C20.8699 22.4995 21.1529 22.4188 21.3146 22.1768Z" fill="white"/>
<path fill-rule="evenodd" clip-rule="evenodd" d="M24.3459 24.1943C24.3459 23.9119 24.2246 23.7103 24.0629 23.5086C23.699 23.1456 23.0521 23.1456 22.6883 23.5086C22.4861 23.7103 22.4053 23.9119 22.4053 24.1943C22.4053 24.4766 22.5266 24.6783 22.6883 24.88C22.85 25.0413 23.0926 25.1623 23.3756 25.1623C23.6586 25.1623 23.8607 25.0413 24.0629 24.88C24.265 24.7186 24.3459 24.4766 24.3459 24.1943Z" fill="white"/>
<path fill-rule="evenodd" clip-rule="evenodd" d="M26.7738 27.6219C26.976 27.4202 27.0568 27.2186 27.0568 26.9362C27.0568 26.6539 26.9355 26.4522 26.7738 26.2505C26.4099 25.8875 25.7631 25.8875 25.3992 26.2505C25.1971 26.4522 25.1162 26.6539 25.1162 26.9362C25.1162 27.2186 25.2375 27.4202 25.3992 27.6219C25.5609 27.7832 25.8035 27.9043 26.0865 27.9043C26.3695 27.9043 26.6121 27.7832 26.7738 27.6219Z" fill="white"/>
<path fill-rule="evenodd" clip-rule="evenodd" d="M29.4826 30.1641C29.6847 30.0028 29.806 29.7608 29.806 29.4785C29.806 29.1961 29.6847 28.9944 29.4826 28.7928C29.0783 28.4298 28.4314 28.4298 28.0676 28.7928C27.8654 28.9944 27.7441 29.1961 27.7441 29.4785C27.7441 29.7608 27.8654 29.9625 28.0676 30.1641C28.2697 30.3658 28.5527 30.4465 28.7953 30.4465C28.9974 30.4868 29.2805 30.4062 29.4826 30.1641Z" fill="white"/>
<path fill-rule="evenodd" clip-rule="evenodd" d="M32.2299 32.8653C32.3916 32.704 32.5129 32.462 32.5129 32.1796C32.5129 31.8973 32.3916 31.6956 32.2299 31.4939C31.866 31.1309 31.2191 31.1309 30.8553 31.4939C30.6936 31.6956 30.5723 31.8973 30.5723 32.1796C30.5723 32.462 30.6936 32.6636 30.8553 32.8653C31.0574 33.067 31.2596 33.1477 31.5426 33.1477C31.7447 33.188 32.0277 33.067 32.2299 32.8653Z" fill="white"/>
<path fill-rule="evenodd" clip-rule="evenodd" d="M34.9389 35.6092C35.1006 35.4479 35.2219 35.2059 35.2219 34.9235C35.2219 34.6412 35.1006 34.3992 34.9389 34.2378C34.575 33.8748 33.9281 33.8748 33.5643 34.2378C33.4025 34.3992 33.2812 34.6412 33.2812 34.9235C33.2812 35.2059 33.4025 35.4075 33.5643 35.6092C33.7664 35.8109 33.9685 35.8916 34.2516 35.8916C34.5346 35.8916 34.7367 35.7705 34.9389 35.6092Z" fill="white"/>
<path fill-rule="evenodd" clip-rule="evenodd" d="M37.4877 38.3106C37.6898 38.1493 37.7707 37.9073 37.7707 37.6249C37.7707 37.3426 37.6494 37.1409 37.4877 36.9393C37.1238 36.5762 36.4769 36.5762 36.1131 36.9393C35.9514 37.1409 35.8301 37.3426 35.8301 37.6249C35.8301 37.9073 35.9514 38.1493 36.1131 38.3106C36.3152 38.5123 36.5174 38.593 36.8004 38.593C37.043 38.593 37.326 38.5123 37.4877 38.3106Z" fill="white"/>
<path fill-rule="evenodd" clip-rule="evenodd" d="M40.3568 41.0138C40.559 40.8524 40.6398 40.6104 40.6398 40.3281C40.6398 40.0457 40.5185 39.844 40.3568 39.6424C39.993 39.2794 39.3461 39.2794 38.9822 39.6424C38.7801 39.844 38.6992 40.0457 38.6992 40.3281C38.6992 40.6104 38.8205 40.8524 38.9822 41.0138C39.1439 41.1751 39.3865 41.2961 39.6695 41.2961C39.9525 41.2961 40.1951 41.2154 40.3568 41.0138Z" fill="white"/>
<path fill-rule="evenodd" clip-rule="evenodd" d="M43.0676 43.7159C43.2697 43.5142 43.391 43.3126 43.391 43.0302C43.391 42.7479 43.2697 42.5462 43.0676 42.3445C42.6633 41.9815 42.0164 41.9815 41.6525 42.3445C41.4504 42.5462 41.3291 42.7479 41.3291 43.0302C41.3291 43.3126 41.4504 43.5142 41.6525 43.7159C41.8547 43.8772 42.1377 43.9982 42.3803 43.9982C42.5824 44.0386 42.825 43.9176 43.0676 43.7159Z" fill="white"/>
<path fill-rule="evenodd" clip-rule="evenodd" d="M16.9093 12.0936C19.6585 10.2786 22.6907 9.43154 26.0464 9.3912C29.3211 9.3912 32.3533 10.2786 35.1834 12.0936L41.0052 6.28544C36.4367 2.81666 31.5043 1.08228 26.0464 1.08228C20.5884 1.08228 15.5752 2.81666 11.1279 6.28544L16.9093 12.0936Z" fill="white"/>
<path fill-rule="evenodd" clip-rule="evenodd" d="M11.0864 35.9317C9.22668 33.1083 8.33724 30.1236 8.33724 26.8968C8.33724 23.6297 9.22668 20.6046 11.0864 17.8618L5.30504 12.094C1.90897 16.5308 0.210938 21.4516 0.210938 26.9371C0.210938 32.342 1.90897 37.3031 5.34547 41.8206L11.0864 35.9317Z" fill="white"/>
<path fill-rule="evenodd" clip-rule="evenodd" d="M35.1395 41.6987C32.3903 43.5541 29.3581 44.5222 26.0833 44.5625C22.7276 44.5625 19.655 43.6751 16.9058 41.7391L11.084 47.5069C15.5716 51.016 20.5849 52.7504 26.0833 52.7101C31.5412 52.6697 36.4736 50.895 40.9208 47.5069L35.1395 41.6987Z" fill="white"/>
<path fill-rule="evenodd" clip-rule="evenodd" d="M40.8418 17.7812C42.7015 20.6046 43.6719 23.67 43.591 26.9775C43.5506 30.2042 42.6207 33.1487 40.8418 35.8511L46.6636 41.6189C50.1001 37.1821 51.879 32.2613 51.879 26.8565C51.9194 21.371 50.181 16.3695 46.6636 11.8923L40.8418 17.7812Z" fill="white"/>
<path fill-rule="evenodd" clip-rule="evenodd" d="M46.9046 43.5139C49.1283 43.5139 50.988 45.329 50.988 47.5877C50.988 49.8061 49.1687 51.6615 46.9046 51.6615C44.681 51.6615 42.8213 49.8464 42.8213 47.5877C42.8213 45.329 44.6406 43.5139 46.9046 43.5139Z" fill="white"/>
<path fill-rule="evenodd" clip-rule="evenodd" d="M5.26364 43.5139C7.48725 43.5139 9.30657 45.329 9.30657 47.5877C9.30657 49.8061 7.48725 51.6615 5.26364 51.6615C3.04002 51.6615 1.2207 49.8464 1.2207 47.5877C1.2207 45.329 3.04002 43.5139 5.26364 43.5139Z" fill="white"/>
<path fill-rule="evenodd" clip-rule="evenodd" d="M46.9873 1.96924C49.2109 1.96924 51.0302 3.7843 51.0302 6.04303C51.0302 8.30177 49.2109 10.1168 46.9873 10.1168C44.7637 10.1168 42.9443 8.30177 42.9443 6.04303C42.9443 3.7843 44.7637 1.96924 46.9873 1.96924Z" fill="white"/>
<path fill-rule="evenodd" clip-rule="evenodd" d="M5.18395 1.96924C7.40757 1.96924 9.26732 3.7843 9.26732 6.0027C9.26732 8.2211 7.448 10.0362 5.18395 10.0362C2.96034 10.0362 1.10059 8.2211 1.10059 6.0027C1.10059 3.7843 2.91991 1.96924 5.18395 1.96924Z" fill="white"/>
</g>
<path d="M75.1442 38.6226C73.6553 38.6226 72.3226 38.3584 71.146 37.8301C69.9933 37.3018 69.0088 36.5815 68.1923 35.669C67.3759 34.7324 66.7516 33.6518 66.3193 32.4272C65.9111 31.1785 65.707 29.8458 65.707 28.429C65.707 27.0362 65.9231 25.7275 66.3553 24.5028C66.8116 23.2541 67.4359 22.1736 68.2284 21.2611C69.0448 20.3245 70.0173 19.5921 71.146 19.0639C72.2986 18.5356 73.5713 18.2714 74.9641 18.2714C76.4048 18.2714 77.6775 18.5356 78.7821 19.0639C79.8868 19.5921 80.8233 20.3245 81.5917 21.2611C82.3841 22.2216 82.9724 23.3742 83.3567 24.719C83.7649 26.0637 83.969 27.5645 83.969 29.2214H69.1289C69.2009 30.1579 69.381 31.0344 69.6692 31.8509C69.9573 32.6673 70.3535 33.3757 70.8578 33.976C71.3621 34.5764 71.9744 35.0446 72.6948 35.3808C73.4152 35.717 74.2437 35.8851 75.1802 35.8851C76.5249 35.8851 77.6295 35.5969 78.494 35.0206C79.3825 34.4203 79.9828 33.6038 80.295 32.5713H83.5728C83.1405 34.3722 82.18 35.837 80.6912 36.9657C79.2264 38.0703 77.3774 38.6226 75.1442 38.6226ZM74.9641 20.8648C74.0996 20.8648 73.3312 21.0209 72.6588 21.3331C71.9864 21.6213 71.4101 22.0295 70.9298 22.5578C70.4496 23.0861 70.0654 23.7104 69.7772 24.4308C69.4891 25.1512 69.2969 25.9436 69.2009 26.8081H80.403C80.307 24.9351 79.7907 23.4823 78.8542 22.4497C77.9417 21.3931 76.645 20.8648 74.9641 20.8648ZM88.3687 11.2836H91.7186V38.0823H88.3687V11.2836ZM100.456 22.2336H100.564C101.164 21.105 101.944 20.2045 102.905 19.5321C103.865 18.8357 104.994 18.4875 106.291 18.4875C106.555 18.4875 106.771 18.5116 106.939 18.5596C107.131 18.5836 107.323 18.6316 107.515 18.7037V21.8734H107.407C107.167 21.8014 106.951 21.7533 106.759 21.7293C106.567 21.7053 106.327 21.6933 106.039 21.6933C105.294 21.6933 104.586 21.8374 103.914 22.1255C103.241 22.3897 102.653 22.7739 102.149 23.2782C101.644 23.7824 101.236 24.3948 100.924 25.1152C100.636 25.8356 100.492 26.652 100.492 27.5645V38.0823H97.1418V18.7397H100.456V22.2336ZM119.235 38.6226C117.771 38.6226 116.45 38.3584 115.273 37.8301C114.121 37.3018 113.136 36.5815 112.32 35.669C111.503 34.7324 110.867 33.6518 110.411 32.4272C109.978 31.1785 109.762 29.8458 109.762 28.429C109.762 27.0362 109.978 25.7275 110.411 24.5028C110.867 23.2541 111.503 22.1736 112.32 21.2611C113.136 20.3245 114.121 19.5921 115.273 19.0639C116.45 18.5356 117.771 18.2714 119.235 18.2714C120.7 18.2714 122.009 18.5356 123.162 19.0639C124.314 19.5921 125.299 20.3245 126.115 21.2611C126.932 22.1736 127.556 23.2541 127.988 24.5028C128.42 25.7275 128.637 27.0362 128.637 28.429C128.637 29.8458 128.42 31.1785 127.988 32.4272C127.556 33.6518 126.932 34.7324 126.115 35.669C125.299 36.5815 124.314 37.3018 123.162 37.8301C122.009 38.3584 120.7 38.6226 119.235 38.6226ZM119.199 35.8851C120.184 35.8851 121.048 35.693 121.793 35.3088C122.561 34.9245 123.198 34.3963 123.702 33.7239C124.206 33.0515 124.578 32.2711 124.818 31.3826C125.083 30.4701 125.215 29.4856 125.215 28.429C125.215 27.3964 125.083 26.4239 124.818 25.5114C124.578 24.5989 124.206 23.8065 123.702 23.1341C123.198 22.4377 122.561 21.8974 121.793 21.5132C121.048 21.129 120.184 20.9369 119.199 20.9369C118.215 20.9369 117.338 21.129 116.57 21.5132C115.826 21.8974 115.201 22.4377 114.697 23.1341C114.193 23.8065 113.808 24.5989 113.544 25.5114C113.304 26.4239 113.184 27.3964 113.184 28.429C113.184 29.4856 113.304 30.4701 113.544 31.3826C113.808 32.2711 114.193 33.0515 114.697 33.7239C115.201 34.3963 115.826 34.9245 116.57 35.3088C117.338 35.693 118.215 35.8851 119.199 35.8851ZM136.228 21.4772H136.336C137.032 20.4926 137.873 19.7122 138.857 19.1359C139.842 18.5596 141.042 18.2714 142.459 18.2714C144.5 18.2714 146.097 18.8117 147.25 19.8923C148.402 20.9729 148.979 22.5338 148.979 24.5749V38.0823H145.665V24.9711C145.665 23.7224 145.281 22.7619 144.512 22.0895C143.768 21.4171 142.735 21.081 141.415 21.081C140.67 21.081 139.974 21.213 139.325 21.4772C138.701 21.7173 138.161 22.0655 137.705 22.5217C137.248 22.978 136.888 23.5303 136.624 24.1787C136.384 24.827 136.264 25.5354 136.264 26.3038V38.0823H132.914V18.7397H136.228V21.4772ZM161.704 38.6586C160.407 38.6586 159.231 38.4185 158.174 37.9382C157.118 37.4579 156.217 36.7856 155.473 35.9211C154.728 35.0326 154.152 33.964 153.744 32.7153C153.36 31.4426 153.167 30.0259 153.167 28.465C153.167 26.8801 153.384 25.4634 153.816 24.2147C154.248 22.942 154.836 21.8734 155.581 21.0089C156.349 20.1204 157.25 19.4481 158.282 18.9918C159.315 18.5116 160.431 18.2714 161.632 18.2714C163.001 18.2714 164.201 18.5836 165.234 19.2079C166.291 19.8323 167.131 20.6607 167.755 21.6933H167.827C167.779 21.2611 167.743 20.7208 167.719 20.0724C167.719 19.4241 167.719 18.7757 167.719 18.1273V11.2836H171.069V38.0823H167.755V35.3088H167.683C167.059 36.3653 166.243 37.1938 165.234 37.7941C164.249 38.3704 163.073 38.6586 161.704 38.6586ZM161.956 35.8851C162.989 35.8851 163.877 35.705 164.622 35.3448C165.366 34.9606 165.978 34.4443 166.459 33.7959C166.963 33.1236 167.323 32.3431 167.539 31.4546C167.779 30.5421 167.899 29.5576 167.899 28.501C167.899 27.4204 167.767 26.4239 167.503 25.5114C167.263 24.5989 166.891 23.8185 166.387 23.1701C165.882 22.4977 165.258 21.9815 164.514 21.6213C163.769 21.2611 162.917 21.081 161.956 21.081C161.068 21.081 160.287 21.2731 159.615 21.6573C158.943 22.0175 158.378 22.5338 157.922 23.2061C157.49 23.8545 157.154 24.6349 156.913 25.5474C156.697 26.4599 156.589 27.4444 156.589 28.501C156.589 29.5576 156.697 30.5421 156.913 31.4546C157.154 32.3431 157.49 33.1236 157.922 33.7959C158.378 34.4443 158.943 34.9606 159.615 35.3448C160.287 35.705 161.068 35.8851 161.956 35.8851Z" fill="white"/>
<defs>
<clipPath id="clip0_3_99502">
<rect width="51.6283" height="51.6283" fill="white" transform="translate(0.210938 1.08228)"/>
</clipPath>
</defs>
</svg>
