<svg width="90" height="21" viewBox="0 0 90 21" fill="none" xmlns="http://www.w3.org/2000/svg">
<path d="M79.0379 21C78.6926 21.002 78.3503 20.9358 78.0307 20.8052C77.711 20.6746 77.4203 20.4823 77.1751 20.2391C76.9292 19.9952 76.734 19.705 76.6008 19.3853C76.4676 19.0656 76.399 18.7227 76.399 18.3763C76.399 18.03 76.4676 17.687 76.6008 17.3673C76.734 17.0476 76.9292 16.7574 77.1751 16.5135L83.2095 10.5053L77.1751 4.49718C76.9305 4.25256 76.7364 3.96214 76.6041 3.64252C76.4717 3.32291 76.4035 2.98034 76.4035 2.63439C76.4035 1.9357 76.6811 1.26564 77.1751 0.771594C77.6692 0.277551 78.3392 0 79.0379 0C79.3839 0 79.7264 0.0681404 80.046 0.200531C80.3657 0.332921 80.6561 0.526969 80.9007 0.771594L88.7717 8.64255C89.0176 8.88646 89.2128 9.17663 89.346 9.49635C89.4792 9.81607 89.5477 10.159 89.5477 10.5053C89.5477 10.8517 89.4792 11.1946 89.346 11.5143C89.2128 11.8341 89.0176 12.1242 88.7717 12.3681L80.9007 20.2391C80.6556 20.4823 80.3648 20.6746 80.0452 20.8052C79.7255 20.9358 79.3832 21.002 79.0379 21Z" fill="#031427"/>
<path d="M81.1302 13.1208C81.1302 13.1208 6.62869 13.1234 3.47014 13.1208C0.311583 13.1183 -1.00027 5.24819 0.846483 5.24988C2.69324 5.25156 3.47014 7.87097 5.55573 7.87353C7.64132 7.87609 81.1302 7.87353 81.1302 7.87353C81.9652 7.87353 82.766 8.14995 83.3565 8.64198C83.9469 9.13401 84.2786 9.80135 84.2786 10.4972C84.2786 11.193 83.9469 11.8604 83.3565 12.3524C82.766 12.8444 81.9652 13.1208 81.1302 13.1208Z" fill="#031427"/>
</svg>
