<svg width="90" height="21" viewBox="0 0 90 21" fill="none" xmlns="http://www.w3.org/2000/svg">
<path d="M10.9614 21C11.3067 21.002 11.649 20.9358 11.9687 20.8052C12.2883 20.6746 12.5791 20.4823 12.8242 20.2391C13.0702 19.9952 13.2654 19.705 13.3986 19.3853C13.5318 19.0656 13.6003 18.7227 13.6003 18.3763C13.6003 18.03 13.5318 17.687 13.3986 17.3673C13.2654 17.0476 13.0702 16.7574 12.8242 16.5135L6.78966 10.5053L12.8242 4.49718C13.0689 4.25256 13.2629 3.96214 13.3953 3.64252C13.5277 3.32291 13.5959 2.98034 13.5959 2.63439C13.5959 1.9357 13.3183 1.26564 12.8242 0.771594C12.3302 0.277551 11.6601 0 10.9614 0C10.6154 0 10.2729 0.0681404 9.95323 0.200531C9.6336 0.332921 9.34318 0.526969 9.09854 0.771594L1.22734 8.64255C0.98142 8.88646 0.786229 9.17663 0.653026 9.49635C0.519822 9.81607 0.451241 10.159 0.451241 10.5053C0.451241 10.8517 0.519822 11.1946 0.653026 11.5143C0.786229 11.8341 0.98142 12.1242 1.22734 12.3681L9.09854 20.2391C9.3437 20.4823 9.63446 20.6746 9.95413 20.8052C10.2738 20.9358 10.6161 21.002 10.9614 21Z" fill="#9CACC5"/>
<path d="M8.86819 13.121C8.86819 13.121 83.3721 13.1235 86.5307 13.121C89.6894 13.1184 91.0013 5.24832 89.1545 5.25C87.3077 5.25169 86.5307 7.87109 84.4451 7.87365C82.3594 7.87621 8.86819 7.87365 8.86819 7.87365C8.03316 7.87365 7.23235 8.15007 6.64189 8.6421C6.05144 9.13413 5.7197 9.80147 5.7197 10.4973C5.7197 11.1931 6.05144 11.8605 6.64189 12.3525C7.23235 12.8445 8.03316 13.121 8.86819 13.121Z" fill="#9CACC5"/>
</svg>
